<?xml version="1.0" encoding="UTF-8"?>
<svg id="Layer_1" xmlns="http://www.w3.org/2000/svg" viewBox="0 0 100 100">
<defs>
<style>.cls-1{fill:#fff;}.cls-2{fill:#2081e2;}</style>
</defs>
<path class="cls-2" d="m50.42,2.002C23.579,1.778,1.778,23.579,2.002,50.42c.224,26.065,21.521,47.362,47.578,47.578,26.841.232,48.65-21.577,48.418-48.418-.216-26.057-21.513-47.354-47.578-47.578Z"/>
<path class="cls-1" d="m36.906,27.639c2.821,3.585,4.511,8.118,4.511,13.041,0,4.261-1.264,8.229-3.438,11.542h-15.281l14.209-24.582Z"/>
<path class="cls-1" d="m83.5,57.665c0,.206-.11.382-.301.463-1.036.441-4.452,2.028-5.878,4.004-3.666,5.106-6.465,13.129-12.725,13.129h-26.118c-9.25,0-16.986-7.34-16.979-17.118,0-.242.206-.441.448-.441h12.379c.426,0,.764.345.764.764v2.388c0,1.271,1.028,2.3,2.3,2.3h9.389v-5.466h-6.414c3.688-4.673,5.885-10.572,5.885-16.993,0-7.163-2.748-13.695-7.244-18.58,2.718.316,5.319.86,7.773,1.58v-1.521c0-1.58,1.278-2.858,2.858-2.858s2.858,1.278,2.858,2.858v3.666c8.765,4.092,14.503,10.881,14.503,18.558,0,4.504-1.969,8.699-5.37,12.225-.654.676-1.558,1.058-2.505,1.058h-6.627v5.459h8.317c1.793,0,5.01-3.401,6.539-5.451,0,0,.066-.103.243-.154.176-.051,15.274-3.519,15.274-3.519.316-.088.632.154.632.477v3.174Z"/>
</svg>